# xmcd
#
# Track frame offsets:
#	150
#	14180
#	42047
#	62040
#	77600
#	95720
#	111380
#	123565
#	139857
#	167662
#	190727
#
# Disc length: 2819 seconds
#
# Revision: 1
# Processed by: cddbd v1.5.1PL0 Copyright (c) Steve Scherf et al.
# Submitted via: CDex 1.50Beta5
#
DISCID=990b010b
DTITLE=a million bamboo - 竹の湯
DYEAR=1900
DGENRE=R&B
TTITLE0=チャルメラ
TTITLE1=kingyo@
TTITLE2=Become One
TTITLE3=peach
TTITLE4=シチュエイション
TTITLE5=Bass
TTITLE6=Artibella
TTITLE7=sun-sun
TTITLE8=オモヒコガレ
TTITLE9=Just A Gigoro(I ain't got nobody)
TTITLE10=開花
EXTD=
EXTT0=
EXTT1=
EXTT2=
EXTT3=
EXTT4=
EXTT5=
EXTT6=
EXTT7=
EXTT8=
EXTT9=
EXTT10=
PLAYORDER=
